<svg xmlns="http://www.w3.org/2000/svg" xmlns:xlink="http://www.w3.org/1999/xlink" width="40" height="40" viewBox="0 0 40 40" fill="none"><g opacity="1"  transform="translate(0 0)  rotate(0)"><path id="矩形 4" fill-rule="evenodd" style="fill:#1FB35B" opacity="1" d="M0 28L10 28L10 21L0 21L0 28Z"></path><path id="矩形 3" fill-rule="evenodd" style="fill:#198043" opacity="1" d="M2.5 23L15.5 23C16.88 23 18 21.88 18 20.5L18 20.5C18 19.12 16.88 18 15.5 18L2.5 18C1.12 18 0 19.12 0 20.5L0 20.5C0 21.88 1.12 23 2.5 23Z"></path><path id="矩形 1" fill-rule="evenodd" style="fill:#FFFFFF" opacity="1" d="M7 40L34 40C35.1 40 36 39.1 36 38L36 10L28 0L7 0C5.9 0 5 0.9 5 2L5 38C5 39.1 5.9 40 7 40Z"></path><path  id="矩形 1" style="fill:#E7E7E7; opacity:1;" d="M5,38v-36c0,-1.1 0.9,-2 2,-2h21l8,10v28c0,1.1 -0.9,2 -2,2h-27c-1.1,0 -2,-0.9 -2,-2zM35.5,38v-27.8246l-7.7403,-9.6754h-20.7597c-0.41193,0 -0.76491,0.14702 -1.05895,0.44105c-0.29403,0.29404 -0.44105,0.64702 -0.44105,1.05895v36c0,0.41193 0.14702,0.7649 0.44105,1.0589c0.29404,0.29407 0.64702,0.4411 1.05895,0.4411h27c0.41193,0 0.7649,-0.14703 1.0589,-0.4411c0.29407,-0.294 0.4411,-0.64697 0.4411,-1.0589z"></path><path id="矩形 2" fill-rule="evenodd" style="fill:#1FB35B" opacity="1" d="M2 40L38 40C39.1 40 40 39.1 40 38L40 25C40 23.9 39.1 23 38 23L2 23C0.9 23 0 23.9 0 25L0 38C0 39.1 0.9 40 2 40Z"></path><path id="矩形 5" fill-rule="evenodd" style="fill:#BDBDBD" opacity="1" d="M30 10L36 10L28 0L28 8C28 9.1 28.9 10 30 10Z"></path><path id="并集" fill-rule="evenodd" style="fill:#1FB35B" opacity="1" d="M11,8.75c0,-0.41 0.34,-0.75 0.75,-0.75h9.5c0.41,0 0.75,0.34 0.75,0.75c0,0.41 -0.34,0.75 -0.75,0.75h-9.5c-0.41,0 -0.75,-0.34 -0.75,-0.75zM11,13.4447c0,-0.45 0.36,-0.8099 0.81,-0.8099h17.38c0.45,0 0.81,0.3599 0.81,0.8099c0,0.45 -0.36,0.81 -0.81,0.81h-17.38c-0.45,0 -0.81,-0.36 -0.81,-0.81zM29.19,19.0047h-17.38c-0.45,0 -0.81,-0.36 -0.81,-0.81c0,-0.45 0.36,-0.8099 0.81,-0.8099h17.38c0.45,0 0.81,0.3599 0.81,0.8099c0,0.45 -0.36,0.81 -0.81,0.81z"></path><path id="文本 1" fill-rule="evenodd" style="fill:#FFFFFF" opacity="1" d="M12.7,36.254c-1.36,0 -2.43,-0.5 -2.43,-0.5c-1.06,-0.51 -1.66,-1.47 -1.66,-1.47c-0.61,-0.96 -0.61,-2.28 -0.61,-2.28c0,-1.39 0.59,-2.39 0.59,-2.39c0.59,-1 1.64,-1.54 1.64,-1.54c1.06,-0.53 2.41,-0.53 2.41,-0.53c0.68,0 1.36,0.13 1.36,0.13c0.68,0.13 1.13,0.34 1.13,0.34v1.49c-1.21,-0.45 -2.26,-0.45 -2.26,-0.45c-1.25,0 -2.02,0.73 -2.02,0.73c-0.77,0.74 -0.77,2.22 -0.77,2.22c0,0.8 0.38,1.4 0.38,1.4c0.38,0.61 1.01,0.94 1.01,0.94c0.62,0.34 1.34,0.39 1.34,0.39l0.27,0.01c0.55,0 1.09,-0.16 1.09,-0.16c0.54,-0.15 0.96,-0.42 0.96,-0.42v1.66c-0.52,0.24 -1.1,0.34 -1.1,0.34c-0.58,0.09 -1.33,0.09 -1.33,0.09zM19.47,36.244c-0.13,0.01 -0.41,0.01 -0.41,0.01c-1.62,0 -2.88,-0.69 -2.88,-0.69v-1.77c0.66,0.41 1.46,0.69 1.46,0.69c0.79,0.27 1.44,0.27 1.44,0.27c0.52,0 0.83,-0.26 0.83,-0.26c0.31,-0.27 0.31,-0.6 0.31,-0.6c0,-0.47 -0.36,-0.86 -0.36,-0.86c-0.36,-0.39 -1.16,-0.63 -1.16,-0.63c-0.91,-0.29 -1.42,-0.58 -1.42,-0.58c-0.51,-0.3 -0.77,-0.74 -0.77,-0.74c-0.25,-0.44 -0.25,-1.13 -0.25,-1.13c0,-0.65 0.31,-1.18 0.31,-1.18c0.31,-0.53 0.92,-0.86 0.92,-0.86c0.6,-0.32 1.44,-0.36 1.44,-0.36c0.11,-0.01 0.34,-0.01 0.34,-0.01c0.62,0 1.25,0.13 1.25,0.13c0.63,0.12 1.06,0.31 1.06,0.31v1.55c-0.46,-0.2 -1.09,-0.33 -1.09,-0.33c-0.62,-0.14 -1.1,-0.14 -1.1,-0.14c-0.61,0 -0.94,0.22 -0.94,0.22c-0.32,0.22 -0.32,0.6 -0.32,0.6c0,0.35 0.35,0.62 0.35,0.62c0.34,0.28 1.08,0.53 1.08,0.53c0.87,0.25 1.42,0.57 1.42,0.57c0.56,0.32 0.87,0.83 0.87,0.83c0.31,0.51 0.31,1.28 0.31,1.28c0,0.73 -0.34,1.29 -0.34,1.29c-0.33,0.57 -0.94,0.89 -0.94,0.89c-0.6,0.31 -1.41,0.35 -1.41,0.35zM22.66,27.704h2.15l2.02,7.06h0.05l2.01,-7.06h2.15l-2.59,8.4h-3.19z"></path></g></svg>
