<?xml version="1.0" encoding="UTF-8"?>
<svg width="273px" height="243px" viewBox="0 0 273 243" version="1.1" xmlns="http://www.w3.org/2000/svg" xmlns:xlink="http://www.w3.org/1999/xlink">
    <title>img-empty</title>
    <defs>
        <linearGradient x1="4.96406941%" y1="36.0531674%" x2="100%" y2="63.9468326%" id="linearGradient-1">
            <stop stop-color="#D8FF7D" offset="0%"></stop>
            <stop stop-color="#7DD6FF" offset="100%"></stop>
        </linearGradient>
        <linearGradient x1="89.2989431%" y1="44.5891979%" x2="9.97723179%" y2="54.5236247%" id="linearGradient-2">
            <stop stop-color="#FF7638" offset="10.1%"></stop>
            <stop stop-color="#FF3929" offset="88.5%"></stop>
        </linearGradient>
        <linearGradient x1="10.1834274%" y1="50%" x2="87.1863777%" y2="50%" id="linearGradient-3">
            <stop stop-color="#DCDDDD" offset="0%"></stop>
            <stop stop-color="#BABABA" offset="100%"></stop>
        </linearGradient>
    </defs>
    <g id="页面-2" stroke="none" stroke-width="1" fill="none" fill-rule="evenodd">
        <g id="1.1.1-首页" transform="translate(-12, -409)">
            <g id="img-empty" transform="translate(13, 409)">
                <path d="M129.723645,242.636 C196.725645,242.636 251.041645,188.32 251.041645,121.318 C251.041645,54.316 196.725645,0 129.723645,0 C62.7216446,0 8.40564463,54.316 8.40564463,121.318 C8.40564463,188.32 62.7216446,242.636 129.723645,242.636 Z" id="路径" fill="#D6DCED" fill-rule="nonzero" opacity="0.27"></path>
                <path d="M226.820645,109.089 L25.4706446,109.089 C22.1923955,109.089 19.0484296,110.391348 16.7304512,112.709514 C14.4124729,115.02768 13.1106445,118.171751 13.1106445,121.45 L13.1106445,204.618 C13.1106445,206.207789 13.741803,207.73254 14.8659536,208.856691 C15.9901042,209.980842 17.5148557,210.612265 19.1046446,210.612 L195.409645,210.612 L212.674645,227.877 C213.271303,228.47248 214.167504,228.650774 214.946645,228.329 C215.725438,228.006071 216.233275,227.246091 216.233645,226.403 L216.233645,210.612 L233.188645,210.612 C236.49842,210.610896 239.181645,207.927776 239.181645,204.618 L239.181645,121.45 C239.181645,118.171578 237.879679,115.027355 235.561484,112.70916 C233.24329,110.390965 230.099067,109.089 226.820645,109.089 L226.820645,109.089 Z" id="路径" fill="url(#linearGradient-1)"></path>
                <path d="M226.820645,109.089 L25.4706446,109.089 C22.1923955,109.089 19.0484296,110.391348 16.7304512,112.709514 C14.4124729,115.02768 13.1106445,118.171751 13.1106445,121.45 L13.1106445,204.618 C13.1106445,206.207789 13.741803,207.73254 14.8659536,208.856691 C15.9901042,209.980842 17.5148557,210.612265 19.1046446,210.612 L195.409645,210.612 L212.674645,227.877 C213.271303,228.47248 214.167504,228.650774 214.946645,228.329 C215.725438,228.006071 216.233275,227.246091 216.233645,226.403 L216.233645,210.612 L233.188645,210.612 C236.49842,210.610896 239.181645,207.927776 239.181645,204.618 L239.181645,121.45 C239.181645,118.171578 237.879679,115.027355 235.561484,112.70916 C233.24329,110.390965 230.099067,109.089 226.820645,109.089 L226.820645,109.089 L226.820645,109.089 Z" id="路径" stroke="#31333A" stroke-linecap="round" stroke-linejoin="round"></path>
                <path d="M211.794645,135.43 L40.4976446,135.43 C38.2818782,135.43 36.4856446,137.226234 36.4856446,139.442 C36.4856446,141.657766 38.2818782,143.454 40.4976446,143.454 L211.794645,143.454 C214.010411,143.454 215.806645,141.657766 215.806645,139.442 C215.806645,137.226234 214.010411,135.43 211.794645,135.43 Z M167.988645,164.779 L40.4976446,164.779 C38.2818782,164.779 36.4856446,166.575234 36.4856446,168.791 C36.4856446,171.006766 38.2818782,172.803 40.4976446,172.803 L167.988645,172.803 C170.204411,172.803 172.000645,171.006766 172.000645,168.791 C172.000645,166.575234 170.204411,164.779 167.988645,164.779 L167.988645,164.779 Z" id="形状" stroke="#31333A" fill="#FFFFFF" fill-rule="nonzero" stroke-linecap="round" stroke-linejoin="round"></path>
                <path d="M30.4516446,103.099 L20.1826446,105.895 L4.96464463,109.428 C1.59264463,110.21 -0.568355373,113.845 0.131644627,117.556 C0.601125289,120.854202 3.53583413,123.231455 6.85964463,123.006 C15.5346446,122.077 32.5276446,120.912 32.5276446,120.912 L30.4516446,103.099 L30.4516446,103.099 Z" id="路径" fill="#FFFFFF" fill-rule="nonzero"></path>
                <path d="M30.4516446,103.099 L20.1826446,105.895 L4.96464463,109.428 C1.59264463,110.21 -0.568355373,113.845 0.131644627,117.556 C0.601125289,120.854202 3.53583413,123.231455 6.85964463,123.006 C15.5346446,122.077 32.5276446,120.912 32.5276446,120.912 L30.4516446,103.099 L30.4516446,103.099 Z" id="路径" stroke="#31333A" stroke-linecap="round" stroke-linejoin="round"></path>
                <path d="M28.9076446,121.318 C31.8276446,120.67 58.3506446,119.502 61.0376446,117.352 L37.8826446,92.521 L37.5796446,88.072 C31.3796446,91.088 20.1826446,105.895 20.1826446,105.895 C20.1826446,105.895 23.0996446,120.278 28.9076446,121.318 Z" id="路径" fill="#B5B5B6" fill-rule="nonzero"></path>
                <path d="M28.9076446,121.318 C31.8276446,120.67 58.3506446,119.502 61.0376446,117.352 L37.8826446,92.521 L37.5796446,88.072 C31.3796446,91.088 20.1826446,105.895 20.1826446,105.895 C20.1826446,105.895 23.0996446,120.278 28.9076446,121.318 Z" id="路径" stroke="#31333A" stroke-linecap="round" stroke-linejoin="round"></path>
                <path d="M19.0346446,112.253 C23.9156446,102.987 35.2676446,81.306 35.7416446,79.158 C36.3476446,76.418 32.7666446,61.387 32.3066446,60.683 C31.8466446,59.98 28.8956446,56.821 31.1566446,67.873 C31.3685794,72.0558734 30.4089139,76.2148857 28.3856446,79.882 L1.70164463,111.45" id="路径" fill="#FFFFFF" fill-rule="nonzero"></path>
                <path d="M32.0696446,69.162 C32.9657991,71.1645238 34.1046693,73.0493188 35.4606446,74.774 L37.0006446,69.708" id="路径" fill="#DCDDDD" fill-rule="nonzero"></path>
                <path d="M19.0346446,112.253 C23.9156446,102.987 35.2676446,81.306 35.7416446,79.158 C36.3476446,76.418 32.7666446,61.387 32.3066446,60.683 C31.8466446,59.98 28.8956446,56.821 31.1566446,67.873 C31.3685794,72.0558734 30.4089139,76.2148857 28.3856446,79.882 L1.70164463,111.45" id="路径" stroke="#31333A" stroke-linecap="round" stroke-linejoin="round"></path>
                <polyline id="路径" fill="#FFFFFF" fill-rule="nonzero" points="247.158645 110.552 241.565645 112.94 217.119645 115.639 211.277645 99.144 240.621645 97.695"></polyline>
                <polyline id="路径" stroke="#31333A" stroke-linecap="round" stroke-linejoin="round" points="247.158645 110.552 241.565645 112.94 217.119645 115.639 211.277645 99.144 240.621645 97.695"></polyline>
                <path d="M229.218645,98.258 L247.158645,97.444 C269.594645,126.358 271.358645,130.676 271.358645,130.676 C260.463645,136.843 253.857645,110.283 235.527645,114.395 L229.218645,98.258 L229.218645,98.258 Z" id="路径" fill="#31333A" fill-rule="nonzero"></path>
                <line x1="243.418645" y1="96.327" x2="271.358645" y2="134.635" id="路径" stroke="#31333A" stroke-linecap="round" stroke-linejoin="round"></line>
                <path d="M239.181645,107.692 C240.911645,107.692 242.313645,106.234 242.313645,104.436 C242.313645,102.637 240.911645,101.179 239.181645,101.179 C237.451645,101.179 236.049645,102.637 236.049645,104.436 C236.049645,106.234 237.451645,107.692 239.181645,107.692 Z" id="路径" stroke="#31333A" fill="#FFFFFF" fill-rule="nonzero" stroke-linecap="round" stroke-linejoin="round"></path>
                <path d="M263.314645,121.994 C252.629645,123.526 253.243645,127.229 253.243645,127.229 L263.314645,121.994 Z" id="路径" fill="#FFFFFF" fill-rule="nonzero"></path>
                <path d="M263.314645,121.994 C252.629645,123.526 253.243645,127.229 253.243645,127.229" id="路径" stroke="#31333A" stroke-linecap="round" stroke-linejoin="round"></path>
                <polyline id="路径" fill="#DCDDDD" fill-rule="nonzero" points="181.081645 109.698 180.043645 103.654 169.723645 81.021 157.233645 86.452 168.178645 110.284"></polyline>
                <path d="M155.874645,90.578 C168.013645,98.103 183.802645,92.942 183.802645,92.942 L172.704645,85.349 L154.375645,86.166" id="路径" fill="url(#linearGradient-2)" fill-rule="nonzero" opacity="0.34"></path>
                <polyline id="路径" stroke="#31333A" stroke-linecap="round" stroke-linejoin="round" points="181.081645 109.698 180.043645 103.654 169.723645 81.021 157.233645 86.452 168.178645 110.284"></polyline>
                <path d="M160.937645,94.923 C160.937645,94.923 190.024645,93.842 189.871254,86.519 L169.798645,43.828 C164.488645,33.106 152.343645,29.638 143.349645,38.855 L79.6496446,104.695 L124.089645,110.808 L151.272645,78.007 L160.937645,94.923 L160.937645,94.923 Z" id="路径" fill="#FFFFFF" fill-rule="nonzero"></path>
                <polyline id="路径" fill="#DCDDDD" fill-rule="nonzero" points="124.206645 97.695 183.030645 101.253 192.657645 82.153 112.626645 89.687"></polyline>
                <path d="M160.937645,94.923 C160.937645,94.923 190.024645,93.842 189.871254,86.519 L169.798645,43.828 C164.488645,33.106 152.343645,29.638 143.349645,38.855 L79.6496446,104.695 L124.089645,110.808 L151.272645,78.007 L160.937645,94.923 L160.937645,94.923 Z" id="路径" stroke="#31333A" stroke-linecap="round" stroke-linejoin="round"></path>
                <path d="M225.998645,92.004 C225.998645,92.004 231.743645,111.532 226.485645,121.474 L106.358645,118.016 L93.0326446,88.072 L225.998645,92.004 L225.998645,92.004 Z" id="路径" fill="#FFFFFF" fill-rule="nonzero"></path>
                <polyline id="路径" fill="#DCDDDD" fill-rule="nonzero" points="115.322645 97.444 138.972645 125.601 93.7176446 123.04"></polyline>
                <path d="M218.505645,89.355 C225.905645,101.907 219.776645,126.936 219.776645,126.936 L218.505645,89.355 L218.505645,89.355 Z" id="路径" fill="#FFFFFF" fill-rule="nonzero"></path>
                <path d="M218.505645,89.355 C225.905645,101.907 219.776645,126.936 219.776645,126.936 M97.6376446,113.07 L224.198645,116.417" id="形状" stroke="#31333A" stroke-linecap="round" stroke-linejoin="round"></path>
                <path d="M225.998645,92.004 C225.998645,92.004 231.743645,111.532 226.485645,121.474 L106.358645,118.016 L93.0326446,88.072 L225.998645,92.004 L225.998645,92.004 Z" id="路径" stroke="#31333A" stroke-linecap="round" stroke-linejoin="round"></path>
                <path d="M33.5346446,91.219 C33.5346446,91.219 47.6976446,69.593 75.3926446,68.036 L105.498645,107.235 L106.358645,118.016 L64.1016446,119.63 C59.1543538,119.815231 54.2721147,118.455655 50.1326446,115.74 C47.6207888,114.104043 45.2985341,112.193985 43.2086446,110.045" id="路径" fill="#B5B5B6" fill-rule="nonzero"></path>
                <path d="M55.3286446,90.421 C60.5716446,88.068 62.2916446,80.525 59.1706446,73.572 C56.0506446,66.619 49.2706446,62.891 44.0276446,65.244 C38.7856446,67.597 37.0656446,75.141 40.1866446,82.093 C43.3066446,89.046 50.0866446,92.774 55.3286446,90.421 Z" id="路径" stroke="#31333A" fill="#FFFFFF" fill-rule="nonzero" stroke-linecap="round" stroke-linejoin="round"></path>
                <path d="M79.3386446,95.645 C98.6906446,120.345 76.3906446,124.803 76.3906446,124.803 L94.7906446,121.941 L108.882645,120.249 L103.722645,98.493 L82.0476446,82.582" id="路径" fill="#31333A" fill-rule="nonzero"></path>
                <path d="M33.5346446,91.219 C33.5346446,91.219 47.6976446,69.593 75.3926446,68.036 L105.498645,107.235 L106.358645,118.016 L64.1016446,119.63 C59.1543538,119.815231 54.2721147,118.455655 50.1326446,115.74 C47.6207888,114.104043 45.2985341,112.193985 43.2086446,110.045" id="路径" stroke="#31333A" stroke-linecap="round" stroke-linejoin="round"></path>
                <polyline id="路径" fill="#FFFFFF" fill-rule="nonzero" points="44.0066446 83.574 38.5106446 71.472 48.9496446 66.954 53.6206446 75.33"></polyline>
                <path d="M37.5386446,85.218 C45.4356446,86.742 50.6066446,75.036 50.6066446,75.036 L41.4296446,75.892 L39.1426446,78.618 L39.4986446,79.456" id="路径" fill="#DCDDDD" fill-rule="nonzero"></path>
                <polyline id="路径" stroke="#31333A" stroke-linecap="round" stroke-linejoin="round" points="44.0066446 83.574 38.5106446 71.472 48.9496446 66.954 53.6206446 75.33"></polyline>
                <path d="M51.7576446,63.806 L34.9296446,71.943 L31.3786446,64.431 C30.7675302,63.1681278 31.284883,61.6485989 32.5396446,61.021 L44.8526446,55.067 C45.4594995,54.7815576 46.1552968,54.7506252 46.7850869,54.9810912 C47.414877,55.2115572 47.9263647,55.6842846 48.2056446,56.294 L51.7576446,63.806 L51.7576446,63.806 Z" id="路径" fill="#31333A" fill-rule="nonzero"></path>
                <path d="M46.9906446,76.894 C45.1512135,77.6680002 43.0786155,77.6741214 41.2346446,76.911 C40.3216079,76.5338538 39.4925695,75.9791221 38.7956446,75.279 C38.0978191,74.5795214 37.5458143,73.7484549 37.1716446,72.834 L32.5456446,61.939 L46.2236446,56.019 L50.8496446,66.914 C52.516302,70.7360639 50.7950671,75.1874568 46.9906446,76.894 L46.9906446,76.894 Z" id="路径" stroke="#31333A" fill="#FFFFFF" fill-rule="nonzero" stroke-linecap="round" stroke-linejoin="round"></path>
                <path d="M40.8666446,48.501 C38.8176603,49.6385319 37.7124287,51.9476836 38.1116446,54.257 C34.2016446,58.607 26.9346446,58.027 31.3786446,64.431 L33.0706446,66.495 C32.1306446,58.666 39.9556446,66.003 42.4446446,59.38 C42.9363022,58.1478118 43.870285,57.1435753 45.0636446,56.564 C45.2346446,56.478 45.4036446,56.382 45.5706446,56.278 C48.1506446,54.67 49.1886446,51.625 47.8896446,49.478 C46.5906446,47.331 43.4466446,46.893 40.8666446,48.501 L40.8666446,48.501 Z M50.8936446,65.595 L50.0416446,65.106 C50.9236446,74.015 48.7176446,68.438 44.3156446,70.592 C39.7356446,72.326 42.2136446,77.784 36.4316446,70.996 L36.1946446,71.956 C37.2213141,75.7370925 40.633886,78.37666 44.5516446,78.42 C46.5500543,78.53693 48.4855809,77.6995746 49.7686446,76.163 C52.4429135,73.2783214 52.9006953,68.9780211 50.8936446,65.595 L50.8936446,65.595 Z" id="形状" fill="#31333A" fill-rule="nonzero"></path>
                <path d="M36.2476446,66.995 C28.4046446,64.746 32.6906446,74.983 38.5106446,71.472 L36.2476446,66.995 Z" id="路径" fill="#FFFFFF" fill-rule="nonzero"></path>
                <path d="M36.2476446,66.995 C28.4046446,64.746 32.6906446,74.983 38.5106446,71.472" id="路径" stroke="#31333A" stroke-linecap="round" stroke-linejoin="round"></path>
                <path d="M47.2986446,62.212 C51.0926446,54.927 55.4806446,65.119 48.9496446,66.954 L47.2986446,62.212 Z" id="路径" fill="#FFFFFF" fill-rule="nonzero"></path>
                <path d="M47.2986446,62.212 C51.0926446,54.927 55.4806446,65.119 48.9496446,66.954" id="路径" stroke="#31333A" stroke-linecap="round" stroke-linejoin="round"></path>
                <path d="M40.4996446,64.926 C39.2476525,65.0409163 38.0445451,65.4683134 37.0006446,66.169 L40.4996446,64.926 Z" id="路径" fill="#FFFFFF" fill-rule="nonzero"></path>
                <path d="M40.4996446,64.926 C39.2476525,65.0409163 38.0445451,65.4683134 37.0006446,66.169" id="路径" stroke="#31333A" stroke-linecap="round" stroke-linejoin="round"></path>
                <path d="M40.1186446,68.566 C39.7688143,68.680879 39.3902247,68.502125 39.2566446,68.159 L38.9286446,67.229 C38.8748807,67.0640341 38.8903992,66.8843085 38.9716446,66.731 C39.0530385,66.5778575 39.1942278,66.4652681 39.3616446,66.42 C39.7114749,66.305121 40.0900645,66.483875 40.2236446,66.827 L40.5516446,67.757 C40.6051246,67.9216634 40.5896112,68.1009688 40.5086446,68.254 C40.427558,68.4076013 40.286299,68.5206085 40.1186446,68.566 L40.1186446,68.566 Z" id="路径" fill="#31333A" fill-rule="nonzero"></path>
                <path d="M42.9626446,64.161 C44.0623147,63.5435255 45.299557,63.2123792 46.5606446,63.198 L42.9626446,64.161 Z" id="路径" fill="#FFFFFF" fill-rule="nonzero"></path>
                <path d="M42.9626446,64.161 C44.0623147,63.5435255 45.299557,63.2123792 46.5606446,63.198" id="路径" stroke="#31333A" stroke-linecap="round" stroke-linejoin="round"></path>
                <path d="M45.5816446,66.868 C45.8376392,66.7992501 46.0229039,66.5771725 46.0446446,66.313 C46.0518643,66.2271768 46.0416599,66.1407797 46.0146446,66.059 L45.6866446,65.129 C45.5526762,64.78627 45.174199,64.6080082 44.8246446,64.723 C44.5683267,64.7918745 44.3829815,65.0144489 44.3616446,65.279 C44.3545882,65.3644916 44.3647903,65.4505294 44.3916446,65.532 L44.7196446,66.462 C44.8536131,66.80473 45.2320902,66.9829918 45.5816446,66.868 L45.5816446,66.868 Z" id="路径" fill="#31333A" fill-rule="nonzero"></path>
                <path d="M42.4666446,66.645 L42.9106446,67.906 C42.9106446,67.906 42.2266446,69.184 43.4186446,69.346" id="路径" fill="#FFFFFF" fill-rule="nonzero"></path>
                <path d="M42.4666446,66.645 L42.9106446,67.906 C42.9106446,67.906 42.2266446,69.184 43.4186446,69.346" id="路径" stroke="#31333A" stroke-linecap="round" stroke-linejoin="round"></path>
                <path d="M115.568645,119.85 L82.4086446,96.327 L99.2346446,82.153 L118.374645,97.745 C125.834645,103.822 124.290645,115.993 115.568645,119.85 L115.568645,119.85 Z" id="路径" fill="#FFFFFF" fill-rule="nonzero"></path>
                <path d="M108.147645,79.919 C109.296645,99.823 89.9276446,99.907 89.9276446,99.907 L91.4856446,90.283 L103.197645,80.711" id="路径" fill="url(#linearGradient-3)" fill-rule="nonzero" opacity="0.34"></path>
                <path d="M113.857645,88.687 C107.831645,95.955 94.5676446,103.693 94.5676446,103.693 L102.778645,85.04" id="路径" fill="#DCDDDD" fill-rule="nonzero"></path>
                <path d="M115.568645,119.85 L82.4086446,96.327 L99.2346446,82.153 L118.374645,97.745 C125.834645,103.822 124.290645,115.993 115.568645,119.85 L115.568645,119.85 L115.568645,119.85 Z" id="路径" stroke="#31333A" stroke-linecap="round" stroke-linejoin="round"></path>
                <path d="M75.1626446,90.836 C80.1826446,99.787 91.9886446,106.552 91.9886446,106.552 C110.656645,94.603 107.080645,86.519 107.080645,86.519 C107.080645,86.519 88.0166446,65.829 75.3926446,68.036" id="路径" fill="#B5B5B6" fill-rule="nonzero"></path>
                <path d="M75.1626446,90.836 C80.1826446,99.787 91.9886446,106.552 91.9886446,106.552 C110.656645,94.603 107.080645,86.519 107.080645,86.519 C107.080645,86.519 88.0166446,65.829 75.3926446,68.036" id="路径" stroke="#31333A" stroke-linecap="round" stroke-linejoin="round"></path>
                <path d="M63.2396446,113.31 L56.7846446,117.26 C56.3192877,117.5674 55.7049683,117.521347 55.2906446,117.148 C55.1564721,117.028226 55.0502955,116.880398 54.9796446,116.715 L48.1396446,101.826 C47.8211965,101.087751 48.084521,100.227502 48.7616446,99.794 L55.2156446,95.844 C55.5203621,95.6449815 55.8974833,95.5908788 56.2458624,95.6962028 C56.5942415,95.8015267 56.8782241,96.0554979 57.0216446,96.39 L63.8606446,111.279 C64.1813769,112.016589 63.9180222,112.877899 63.2396446,113.31 L63.2396446,113.31 Z" id="路径" stroke="#31333A" fill="#FFFFFF" fill-rule="nonzero" stroke-linecap="round" stroke-linejoin="round"></path>
                <path d="M53.9196446,104.195 L51.9616446,105.394 C51.7410902,105.539358 51.4671354,105.578599 51.2146446,105.501 C50.9617766,105.424932 50.7556079,105.240735 50.6516446,104.998 L49.6966446,102.919 C49.4645545,102.383584 49.6556951,101.758881 50.1476446,101.445 L52.1056446,100.247 C52.2151192,100.175959 52.3385656,100.12924 52.4676446,100.11 C52.8677343,100.053285 53.2562027,100.271696 53.4156446,100.643 L54.3706446,102.722 C54.601274,103.257195 54.4103794,103.880671 53.9196446,104.195 L53.9196446,104.195 Z" id="路径" stroke="#31333A" fill="#FFFFFF" fill-rule="nonzero" stroke-linecap="round" stroke-linejoin="round"></path>
                <path d="M118.386645,118.142 C117.175758,119.304079 115.541191,119.918578 113.864645,119.842 L69.6396446,117.571 C69.6396446,117.571 63.6016446,118.194 62.8296446,118.298 C60.6979601,118.256627 58.5727922,118.048323 56.4736446,117.675 C55.8911704,117.602635 55.3696111,117.278793 55.0464297,116.788827 C54.7232483,116.298861 54.6308709,115.691931 54.7936446,115.128 C52.9326446,115.128 53.2506446,112.634 53.2506446,112.634 C49.4366446,112.842 50.2086446,109.984 50.6626446,109.88 C51.1166446,109.775 58.3356446,108.217 59.6066446,107.645 C60.8776446,107.074 58.9706446,104.995 58.9706446,104.995 C53.6586446,103.54 55.7476446,101.254 56.1106446,101.254 C56.4746446,101.254 59.5616446,101.721 60.1516446,101.825 C60.7416446,101.929 68.0066446,109.204 68.8236446,109.204 C69.3016446,109.204 86.6456446,107.374 100.946645,105.856" id="路径" fill="#FFFFFF" fill-rule="nonzero"></path>
                <path d="M118.386645,118.142 C117.175758,119.304079 115.541191,119.918578 113.864645,119.842 L69.6396446,117.571 C69.6396446,117.571 63.6016446,118.194 62.8296446,118.298 C60.6979601,118.256627 58.5727922,118.048323 56.4736446,117.675 C55.8911704,117.602635 55.3696111,117.278793 55.0464297,116.788827 C54.7232483,116.298861 54.6308709,115.691931 54.7936446,115.128 C52.9326446,115.128 53.2506446,112.634 53.2506446,112.634 C49.4366446,112.842 50.2086446,109.984 50.6626446,109.88 C51.1166446,109.775 58.3356446,108.217 59.6066446,107.645 C60.8776446,107.074 58.9706446,104.995 58.9706446,104.995 C53.6586446,103.54 55.7476446,101.254 56.1106446,101.254 C56.4746446,101.254 59.5616446,101.721 60.1516446,101.825 C60.7416446,101.929 68.0066446,109.204 68.8236446,109.204 C69.3016446,109.204 86.6456446,107.374 100.946645,105.856 M111.946645,88.63 L126.146645,88.756 M58.8296446,111.579 L53.2506446,112.634 M57.9516446,114.68 L54.7936446,115.128 M148.016645,70.965 L151.273645,78.007" id="形状" stroke="#31333A" stroke-linecap="round" stroke-linejoin="round"></path>
                <path d="M108.079651,32.965 C108.084733,39.0298108 105.178146,44.7284166 100.265645,48.285 C95.3527831,51.8421718 89.0302215,52.8228292 83.2706446,50.921 L71.3636446,54.596 C70.7574862,54.7842188 70.097325,54.5982641 69.678526,54.1213346 C69.259727,53.6444051 69.1606583,52.9657466 69.4256446,52.389 L73.4826446,43.519 C70.1375052,38.5470791 69.3479752,32.283524 71.3546446,26.637 C74.4355698,17.9649359 83.3128892,12.7707034 92.3823247,14.3334369 C101.45176,15.8961704 108.078745,23.7619138 108.079651,32.965 L108.079651,32.965 Z" id="路径" fill="#FFFFFF" fill-rule="nonzero"></path>
                <path d="M108.079651,32.965 C108.084733,39.0298108 105.178146,44.7284166 100.265645,48.285 C95.3527831,51.8421718 89.0302215,52.8228292 83.2706446,50.921 L71.3636446,54.596 C70.7574862,54.7842188 70.097325,54.5982641 69.678526,54.1213346 C69.259727,53.6444051 69.1606583,52.9657466 69.4256446,52.389 L73.4826446,43.519 C70.1375052,38.5470791 69.3479752,32.283524 71.3546446,26.637 C74.4355698,17.9649359 83.3128892,12.7707034 92.3823247,14.3334369 C101.45176,15.8961704 108.078745,23.7619138 108.079651,32.965 L108.079651,32.965 Z" id="路径" stroke="#31333A" stroke-linecap="round" stroke-linejoin="round"></path>
                <path d="M73.4066446,38.361 L76.4356446,40.345 L73.4066446,38.361 Z M98.4016446,24.12 L99.0856446,24.584 L98.4016446,24.12 Z" id="形状" fill="#31333A" fill-rule="nonzero"></path>
                <path d="M106.314645,53.878 C108.26362,53.9153771 110.080739,52.8969361 111.066072,51.2149671 C112.051405,49.5329981 112.051212,47.4499367 111.065567,45.7681507 C110.079921,44.0863647 108.262613,43.0682611 106.313645,43.106 C103.367386,43.1464172 101.000264,45.5464576 101.000537,48.4929932 C101.000811,51.4395289 103.368379,53.8391297 106.314645,53.879 L106.314645,53.878 Z M194.416645,40.778 L203.505645,37.465 M189.871645,48.748 L198.961645,45.434" id="形状" stroke="#00A0E9" stroke-width="2" stroke-linecap="round" stroke-linejoin="round"></path>
            </g>
        </g>
    </g>
</svg>