<?xml version="1.0" encoding="UTF-8"?>
<svg width="32px" height="32px" viewBox="0 0 32 32" version="1.1" xmlns="http://www.w3.org/2000/svg" xmlns:xlink="http://www.w3.org/1999/xlink">
    <title>icon-user</title>
    <defs>
        <linearGradient x1="8.93894131%" y1="0%" x2="94.0669006%" y2="94.9810308%" id="linearGradient-1">
            <stop stop-color="#D8FF7D" offset="0%"></stop>
            <stop stop-color="#7DD6FF" offset="100%"></stop>
        </linearGradient>
    </defs>
    <g id="页面-2" stroke="none" stroke-width="1" fill="none" fill-rule="evenodd">
        <g id="1.1.1-首页" transform="translate(-24, -734)">
            <g id="icon-user" transform="translate(24, 734)">
                <rect id="矩形备份-2" fill="url(#linearGradient-1)" x="0" y="0" width="32" height="32" rx="16"></rect>
                <path d="M21,17.5 C21.6903559,17.5 22.3153559,17.779822 22.767767,18.232233 C23.220178,18.6846441 23.5,19.3096441 23.5,20 C23.5,20.6903559 23.220178,21.3153559 22.767767,21.767767 C22.3153559,22.220178 21.6903559,22.5 21,22.5 L11,22.5 C10.3096441,22.5 9.68464406,22.220178 9.23223305,21.767767 C8.77982203,21.3153559 8.5,20.6903559 8.5,20 C8.5,19.3096441 8.77982203,18.6846441 9.23223305,18.232233 C9.68464406,17.779822 10.3096441,17.5 11,17.5 Z M19.5,8.5 L19.5,12 C19.5,12.9664983 19.1082492,13.8414983 18.4748737,14.4748737 C17.8414983,15.1082492 16.9664983,15.5 16,15.5 C15.0335017,15.5 14.1585017,15.1082492 13.5251263,14.4748737 C12.8917508,13.8414983 12.5,12.9664983 12.5,12 C12.5,11.0335017 12.8917508,10.1585017 13.5251263,9.52512627 C14.1585017,8.89175084 15.0335017,8.5 16,8.5 L19.5,8.5 Z" id="形状结合" stroke="#303133" fill="#FFFFFF"></path>
            </g>
        </g>
    </g>
</svg>