<?xml version="1.0" encoding="UTF-8"?>
<svg width="40px" height="40px" viewBox="0 0 40 40" version="1.1" xmlns="http://www.w3.org/2000/svg" xmlns:xlink="http://www.w3.org/1999/xlink">
    <title>5.反馈/7.Result结果/亮色/无信息备份</title>
    <defs>
        <linearGradient x1="30.857265%" y1="51.2104487%" x2="94.5389905%" y2="48.6316181%" id="linearGradient-1">
            <stop stop-color="#000000" offset="0%"></stop>
            <stop stop-color="#000000" stop-opacity="0" offset="100%"></stop>
        </linearGradient>
    </defs>
    <g id="页面-2" stroke="none" stroke-width="1" fill="none" fill-rule="evenodd">
        <g id="2.1.4-会话-删除" transform="translate(-532, -337)">
            <g id="5.反馈/4.Notification通知提醒框/亮色/带操作常用" transform="translate(508, 305)">
                <g id="插图-删除提示" transform="translate(24, 32)">
                    <rect id="矩形" fill="url(#linearGradient-1)" opacity="0.18" x="21" y="36" width="19" height="4"></rect>
                    <path d="M13,0 L27,4.4408921e-16 C28.6568542,0 30,1.34314575 30,3 L30,21 L30,21 L10,21 L10,3 C10,1.34314575 11.3431458,4.4408921e-16 13,4.4408921e-16 Z" id="矩形" fill="#F9F9F9"></path>
                    <path d="M36,12 L32,36 C32,38.209139 26.627417,40 20,40 C13.372583,40 8,38.209139 8,36 L4,12 L36,12 Z M26,13 L14,13 L14,14 C14,17.3137085 16.6862915,20 20,20 C23.3137085,20 26,17.3137085 26,14 L26,13 Z" id="形状" fill="#ECECEC"></path>
                    <g id="编组-2" transform="translate(1, 26)">
                        <circle id="椭圆形" fill="#FF6868" cx="7" cy="7" r="7"></circle>
                        <polygon id="直线" fill="#FFFFFF" fill-rule="nonzero" points="7.75 3 7.75 9 6.25 9 6.25 3"></polygon>
                        <polygon id="直线备份" fill="#FFFFFF" fill-rule="nonzero" points="7.75 10 7.75 11 6.25 11 6.25 10"></polygon>
                    </g>
                    <ellipse id="椭圆形备份" fill="#D2D2D2" cx="20" cy="12" rx="16" ry="4"></ellipse>
                    <path d="M20,8 C23.7840875,8 27.2613566,8.32841134 30.0006529,8.87744537 L30.0006529,15.1225546 C27.2613566,15.6715887 23.7840875,16 20,16 C16.215529,16 12.7379386,15.6715221 9.99851429,15.1223877 L9.99851429,8.87761231 C12.7379386,8.32847791 16.215529,8 20,8 Z" id="形状结合" fill="#F9F9F9"></path>
                    <rect id="矩形备份-2" fill="#ECECEC" x="14" y="7" width="6" height="1"></rect>
                    <rect id="矩形备份" fill="#ECECEC" x="14" y="4" width="12" height="1"></rect>
                </g>
            </g>
        </g>
    </g>
</svg>