<?xml version="1.0" encoding="UTF-8"?>
<svg width="24px" height="24px" viewBox="0 0 24 24" version="1.1" xmlns="http://www.w3.org/2000/svg" xmlns:xlink="http://www.w3.org/1999/xlink">
    <title>icon-send-02</title>
    <g id="页面-2" stroke="none" stroke-width="1" fill="none" fill-rule="evenodd">
        <g id="1.1.1-首页" transform="translate(-1155, -425)" fill="#FFFFFF" stroke="#BEC1C7">
            <g id="编组-5" transform="translate(1151, 421)">
                <g id="编组" transform="translate(4, 4)">
                    <path d="M19.9227675,5.98125827 L15.2594455,19.9705523 C14.9965976,20.759058 14.1442764,21.1851981 13.3557329,20.9223629 C13.1340763,20.8484809 12.9326663,20.7240087 12.7674533,20.5588036 L9.08647686,16.878004 L12.0335136,11.966512 L7.1217857,14.9134072 L3.44080927,11.2326076 C2.85306358,10.6448901 2.85306358,9.69201186 3.44080927,9.1042944 C3.60602229,8.93908931 3.80743228,8.81461707 4.02908882,8.74073511 L18.0190549,4.07763709 C18.8075985,3.81480186 19.6599196,4.24094197 19.9227675,5.02944768 C20.0110332,5.29423213 20.0236426,5.5774317 19.9605957,5.84747761 L19.9227675,5.98125827 Z" id="三角形"></path>
                </g>
            </g>
        </g>
    </g>
</svg>